<?xml version="1.0" encoding="UTF-8"?>
<svg data-bbox="0.012 0 1477.698 1211.5" viewBox="0 0 1477.71 1211.49" xmlns="http://www.w3.org/2000/svg" data-type="color">
    <g>
        <path d="M912.76 365.39c6.21-8.45 10.86-14.77 12.38-16.8l75.36-100.18-4.61.79c14.8-20.1 27.85-38.13 31.71-44.3l14.92-23.87L1172.61 0l-116.22 17.15c-1.28.19-128.79 19.01-205.92 31.32-6.06.97-12.16 1.92-18.27 2.88-87.65 13.75-170.43 26.74-215.92 74.86l-.66.72c-17.76 19.55-39.98 60.29-61.5 105.35-28.26-84.4-86.05-134.86-145.78-155.06 0 0-21.26-15.55-82.67-9.17-99.86 5.31-164.47 102.89-182.98 139.53-40.66 19.84-80.91 44.12-119.62 72.14-19.6 14.17-27.77 39.11-20.35 62.05 7.47 23.06 28.65 38.55 52.71 38.55 7.86 0 15.52-1.64 22.81-4.9 25.07-11.23 62.75-27.38 100.87-41.05 2.2-.49 9.1-1.81 19.36-1.81 25.62 0 65.8 7.86 111.72 45.31 6.59 5.37 12.92 11.83 18.8 19.19 13.75 17.2 27.65 34.97 41.1 52.15 4.66 5.96 9.33 11.92 14.01 17.88-34.46 83.31-39.45 161.34-14.82 232.21 30.65 92.36 117.97 149.71 228 149.71 9.13 0 18.4-.42 27.56-1.25 13.91-1.02 27.43-3.3 40.47-6.83 20.43 31.85 41.22 65.01 61.51 97.35l1.89 3.02.39.59c9.57 14.34 17 28.43 22.17 41.87-3.2-1.84-6.51-3.53-9.92-5.07-15.51-7-31.91-10.55-48.74-10.55-50.94 0-95.92 32.51-111.92 80.89-16.19 48.95 1.87 103.57 43.91 133.28 25.14 18.83 56.36 29.19 88.04 29.19 18.9 0 37.06-3.63 53.97-10.79l.55-.24c71.24-31.18 119.77-98.18 123.77-170.81 2.75-39.33-6.18-82.06-25.88-123.72-9.11-19.14-22.66-41.99-34.62-62.15-5.26-8.87-10.23-17.25-14.31-24.44l-.52-.89c-8.83-14.83-18.05-29.94-27.78-45.52 34.29-10.7 131.57-46.85 255.69-142.89a50.205 50.205 0 0 0 18.56-29.98l19.47-4.05 127.78-87.01s123.98-104.62 165.64-150.94l102.75-114.25-564.95 121.59Z" fill="#000000" data-color="1"/>
        <path d="M820.11 927.31c-11.88-24.96-33.59-59.29-47.28-83.41-17.69-29.73-36.1-59.08-54.96-88.18 12.48-12.13 23.15-26.6 31.6-43.26 32.01-61.83 31.83-143.92-14.57-198.47-33.94-40.38-88.99-63.8-141.61-55.19-21.95 3.16-43.93 11.06-62.34 23.94-2.81-4.23-5.71-8.4-8.81-12.42-3.21-4.1-13.05-17.13-22.13-28.73 17.04-48.13 27.38-96.63 18-147.88-21.06-132.06-116.36-184.67-184.94-176.11l.19-.4c-87.08 13.48-130.88 82.4-146.25 112.95-4.76 9.52-12.44 17.28-22.03 21.89-33.14 16.14-71.46 38.07-112.78 67.98-5.63 4.07-.65 12.8 5.67 9.98 28.99-12.98 67.69-29.41 106.52-43.23 0 0 .05-.02.13-.04 3.41-1.02 83.51-23.77 177.1 52.56 9.69 7.9 18.42 16.92 26.22 26.69 24.8 31.04 49.11 62.6 73.85 93.82-1.52 3.46-3.08 6.93-4.71 10.41-30.28 65.95-46.01 140.38-20.61 213.08 28.4 86.16 116.66 122.93 204.41 114.87 23.49-1.66 45.1-7.97 64.23-18.32 28.07 42.88 57.86 90.43 85.45 134.41 50.24 75.27 61.56 161.47-22.24 217.25-3.72 2.63-7.67 4.78-11.74 6.57 11.22-9.44 19.63-22.56 22.9-38.47 6.33-30.81-9.84-62.63-38.51-75.57-37.51-16.93-80.37 2.58-92.95 40.61-9.72 29.39 1.7 60.64 25.93 77.4 26.06 19.84 62.88 25.74 93.36 12.83 50.78-22.22 91.1-71.66 94.05-128.33 2.48-34.17-6.71-68.72-21.15-99.24ZM597.86 491.46c41.41-5.86 83.38 13.45 109.39 45.51 35.4 42.98 32.95 109.3 6.95 156.77-5.37 9.8-11.8 18.96-19.26 27.03-12.71-19.08-25.65-38.02-38.7-56.88 7.49-9.09 12.9-20.26 14.83-33.26 4.47-30.02-11.93-60.01-39.69-72.27-17.13-7.56-35.3-7.5-51.19-1.65-6.42-8.86-12.84-17.73-19.28-26.56-4.58-6.42-8.79-13.13-12.92-19.91 14.43-10.34 32.04-16.57 49.86-18.78Zm-79.24 57.77c2.31 2.6 4.58 5.23 6.74 7.95 7.05 8.88 14.04 17.82 20.97 26.8-2.98 4.67-5.5 9.74-7.32 15.24-4.37 13.2-4.45 26.78-1.04 39.26-10.18-9.24-18.09-20.51-21.84-32.89-5.49-18.21-4.05-38.33 2.5-56.36Zm-159.54-281.6c-7.82-9.11-21.56-24.2-27.88-33.9-17.13-25.04-28.81-58.72 12.42-62.17 51.89-2.82 94.77 42.96 111.32 90.13 16.53 46.31 17.9 89.98 8.36 133.51-6.11-7.79-11.07-14.11-13.76-17.53-28.2-36.11-60.4-75.88-90.45-110.05ZM657.04 747.1C606.82 766.14 541 758.72 499.33 725c-43.17-33.97-59.92-98.46-47.87-151.49 4.91-22.87 12.54-50.4 23.45-74.45 5.32 6.41 12.92 17.42 18.33 23.75.53.55 1.08 1.1 1.62 1.65-17.9 35.83-18.94 81.86 4.35 115.19 23.39 31.98 63.54 53.2 103.48 49.09 6.43.09 12.76-.74 18.83-2.4 13.66 19.44 27.1 39.02 40.33 58.73-1.59.72-3.2 1.4-4.83 2.03Z" fill="#2dccea" data-color="2"/>
        <path d="M821.3 406.06s57.44-78.55 64.08-87.37c-29.11 5-171.17 24.01-208.48 28.82-4.1.53-7.23-3.55-5.68-7.38 1.5-3.71 3.13-7.57 4.51-10.86 1.9-4.54 6.02-7.74 10.88-8.49 43.75-6.77 156.86-26.2 192.21-30.8 22.06-2.87 28.16-4.59 28.16-4.59s70.19-93.67 78.43-106.84c-41.79 10.36-207.76 35.17-253.87 42.65-4.6.75-7.98-4.14-5.73-8.22 2-3.63 4.12-7.06 5.9-9.93 2.5-4.04 6.55-6.83 11.21-7.76 45.21-9.01 263.91-49.84 263.91-49.84l56.82-79.08S936.04 85.2 858.3 97.6c-81.8 13.05-169.32 24.12-205.86 62.79C609.82 207.29 523.4 431.5 523.4 431.5l19.79 21.11 278.12-46.55Z" fill="#7369fd" data-color="3"/>
        <path d="M715.01 458.85s145.52 87.49 48.04 269.43c0 0 104.42-24.96 250-137.6 5.56-4.3-94.41 17.58-136.18 23.94-5.19.79-9.3-4.29-7.49-9.22l4.45-12.06c1.28-3.47 4.32-6 7.97-6.62l179.91-37.43s79.74-54.29 119.61-81.44c-23.39 3.5-217.49 43.05-274.11 52.62-5.24.89-9.32-4.44-7.12-9.28l5.53-12.18c1.35-2.97 4.03-5.11 7.23-5.74 43.78-8.68 315.78-70.73 322-75.57 42.59-33.19 59.86-44.83 103.12-92.92L715.01 458.86Z" fill="#ff5703" data-color="4"/>
    </g>
</svg>
